<svg width="18" height="18" viewBox="0 0 18 18" fill="none" xmlns="http://www.w3.org/2000/svg">
<path d="M9.77923 2.68617C9.32962 2.45151 8.71204 2.44799 8.25929 2.68182C6.32531 3.68062 4.5728 4.82499 3.03833 6.09295C2.83371 6.26203 2.6983 6.49868 2.70061 6.76917C2.70292 7.03873 2.84141 7.27274 3.04536 7.4395C4.56748 8.68408 6.32197 9.8298 8.22079 10.8208C8.6704 11.0555 9.28798 11.059 9.74074 10.8252C11.6747 9.82638 13.4272 8.68201 14.9617 7.41406C15.1663 7.24498 15.3017 7.00833 15.2994 6.73784C15.2971 6.46828 15.1586 6.23426 14.9547 6.0675C13.4325 4.82292 11.6781 3.6772 9.77923 2.68617Z" fill="#0A0A0B"/>
<path d="M15.7185 10.2983C15.9821 10.1338 16.0623 9.78679 15.8978 9.52328C15.7333 9.25976 15.3863 9.1795 15.1227 9.34402L10.5423 12.2037C10.1343 12.4584 9.57997 12.6005 8.99988 12.6005C8.41979 12.6005 7.8654 12.4586 7.45729 12.2039L2.92704 9.37655C2.66349 9.21207 2.31651 9.29238 2.15203 9.55592C1.98756 9.81947 2.06787 10.1665 2.33141 10.3309L6.86166 13.1582C7.4833 13.5462 8.25449 13.7255 8.99994 13.7255C9.7454 13.7254 10.5165 13.546 11.1381 13.158L15.7185 10.2983Z" fill="#0A0A0B"/>
<path d="M15.7186 13.1143C15.9821 12.9498 16.0623 12.6028 15.8977 12.3393C15.7332 12.0758 15.3862 11.9955 15.1227 12.1601L11.156 14.6372C10.5764 14.9992 9.801 15.1949 8.99985 15.1949C8.1987 15.195 7.42326 14.9994 6.84349 14.6375L2.9271 12.1926C2.66357 12.0281 2.31658 12.1084 2.15207 12.3719C1.98756 12.6354 2.06783 12.9824 2.33135 13.1469L6.24775 15.5918C7.04109 16.0871 8.03338 16.32 8.99991 16.3199C9.96644 16.3199 10.9587 16.0868 11.7519 15.5915L15.7186 13.1143Z" fill="#0A0A0B"/>
</svg>
