<svg width="23" height="24" viewBox="0 0 23 24" fill="none" xmlns="http://www.w3.org/2000/svg">
<path d="M11.5 4.09375C9.51519 4.09375 7.90621 5.70273 7.90621 7.6875C7.90621 9.67227 9.51519 11.2812 11.5 11.2812C13.4847 11.2812 15.0937 9.67227 15.0937 7.6875C15.0937 5.70273 13.4847 4.09375 11.5 4.09375Z" fill="white"/>
<path d="M7.66663 13.1979C5.68185 13.1979 4.07288 14.8069 4.07288 16.7917V17.9304C4.07288 18.6523 4.59601 19.2678 5.30843 19.3841C9.40897 20.0535 13.5909 20.0535 17.6915 19.3841C18.4039 19.2678 18.927 18.6523 18.927 17.9304V16.7917C18.927 14.8069 17.3181 13.1979 15.3333 13.1979H15.0066C14.8298 13.1979 14.6541 13.2259 14.4861 13.2808L13.6566 13.5516C12.2552 14.0092 10.7447 14.0092 9.34331 13.5516L8.51386 13.2808C8.34579 13.2259 8.1701 13.1979 7.99329 13.1979H7.66663Z" fill="white"/>
</svg>
